<svg width="1080" height="291" xmlns="http://www.w3.org/2000/svg" xmlns:xlink="http://www.w3.org/1999/xlink" overflow="hidden"><defs><clipPath id="clip0"><rect x="105" y="233" width="1080" height="291"/></clipPath></defs><g clip-path="url(#clip0)" transform="translate(-105 -233)"><path d="M192.758 233.257 192.758 493.791" stroke="#000000" stroke-width="1.33333" stroke-linejoin="round" stroke-miterlimit="10" fill="none" fill-rule="evenodd"/><path d="M105.691 320.324 279.824 320.324" stroke="#000000" stroke-width="1.33333" stroke-linejoin="round" stroke-miterlimit="10" fill="none" fill-rule="evenodd"/><path d="M105.691 406.724 279.824 406.724" stroke="#000000" stroke-width="1.33333" stroke-linejoin="round" stroke-miterlimit="10" fill="none" fill-rule="evenodd"/><path d="M106.358 233.257 106.358 493.791" stroke="#000000" stroke-width="1.33333" stroke-linejoin="round" stroke-miterlimit="10" fill="none" fill-rule="evenodd"/><path d="M279.158 233.257 279.158 493.791" stroke="#000000" stroke-width="1.33333" stroke-linejoin="round" stroke-miterlimit="10" fill="none" fill-rule="evenodd"/><path d="M105.691 233.924 279.824 233.924" stroke="#000000" stroke-width="1.33333" stroke-linejoin="round" stroke-miterlimit="10" fill="none" fill-rule="evenodd"/><path d="M105.691 493.124 279.824 493.124" stroke="#000000" stroke-width="1.33333" stroke-linejoin="round" stroke-miterlimit="10" fill="none" fill-rule="evenodd"/><path d="M991.306 233.257 991.306 493.791" stroke="#000000" stroke-width="1.33333" stroke-linejoin="round" stroke-miterlimit="10" fill="none" fill-rule="evenodd"/><path d="M798.639 320.324 1183.97 320.324" stroke="#000000" stroke-width="1.33333" stroke-linejoin="round" stroke-miterlimit="10" fill="none" fill-rule="evenodd"/><path d="M798.639 406.724 1183.97 406.724" stroke="#000000" stroke-width="1.33333" stroke-linejoin="round" stroke-miterlimit="10" fill="none" fill-rule="evenodd"/><path d="M799.306 233.257 799.306 493.791" stroke="#000000" stroke-width="1.33333" stroke-linejoin="round" stroke-miterlimit="10" fill="none" fill-rule="evenodd"/><path d="M1183.31 233.257 1183.31 493.791" stroke="#000000" stroke-width="1.33333" stroke-linejoin="round" stroke-miterlimit="10" fill="none" fill-rule="evenodd"/><path d="M798.639 233.924 1183.97 233.924" stroke="#000000" stroke-width="1.33333" stroke-linejoin="round" stroke-miterlimit="10" fill="none" fill-rule="evenodd"/><path d="M798.639 493.124 1183.97 493.124" stroke="#000000" stroke-width="1.33333" stroke-linejoin="round" stroke-miterlimit="10" fill="none" fill-rule="evenodd"/><text font-family="Courier New,Courier New_MSFontService,sans-serif" font-weight="700" font-size="48" transform="translate(880.889 290)">+<tspan font-size="48" x="192" y="0">+</tspan><tspan font-size="48" x="0" y="87">+</tspan><tspan font-size="48" x="192" y="87">+</tspan><tspan font-size="48" x="0" y="173">+</tspan><tspan font-size="48" x="192" y="173">+</tspan></text><path d="M118.5 255.5C118.5 249.977 122.977 245.5 128.5 245.5L168.5 245.5C174.023 245.5 178.5 249.977 178.5 255.5L178.5 296.5C178.5 302.023 174.023 306.5 168.5 306.5L128.5 306.5C122.977 306.5 118.5 302.023 118.5 296.5Z" stroke="#2F528F" stroke-width="1.33333" stroke-miterlimit="8" fill="#DAE3F3" fill-rule="evenodd"/><path d="M118.5 431.5C118.5 425.977 122.977 421.5 128.5 421.5L168.5 421.5C174.023 421.5 178.5 425.977 178.5 431.5L178.5 472.5C178.5 478.023 174.023 482.5 168.5 482.5L128.5 482.5C122.977 482.5 118.5 478.023 118.5 472.5Z" stroke="#2F528F" stroke-width="1.33333" stroke-miterlimit="8" fill="#DAE3F3" fill-rule="evenodd"/><path d="M205.5 255.667C205.5 250.052 210.052 245.5 215.667 245.5L256.333 245.5C261.948 245.5 266.5 250.052 266.5 255.667L266.5 296.333C266.5 301.948 261.948 306.5 256.333 306.5L215.667 306.5C210.052 306.5 205.5 301.948 205.5 296.333Z" stroke="#2F528F" stroke-width="1.33333" stroke-miterlimit="8" fill="#DAE3F3" fill-rule="evenodd"/><path d="M205.5 431.667C205.5 426.052 210.052 421.5 215.667 421.5L256.333 421.5C261.948 421.5 266.5 426.052 266.5 431.667L266.5 472.333C266.5 477.948 261.948 482.5 256.333 482.5L215.667 482.5C210.052 482.5 205.5 477.948 205.5 472.333Z" stroke="#2F528F" stroke-width="1.33333" stroke-miterlimit="8" fill="#DAE3F3" fill-rule="evenodd"/><path d="M118.5 343.5C118.5 337.977 122.977 333.5 128.5 333.5L168.5 333.5C174.023 333.5 178.5 337.977 178.5 343.5L178.5 384.5C178.5 390.023 174.023 394.5 168.5 394.5L128.5 394.5C122.977 394.5 118.5 390.023 118.5 384.5Z" stroke="#2F528F" stroke-width="1.33333" stroke-miterlimit="8" fill="#DAE3F3" fill-rule="evenodd"/><path d="M205.5 343.667C205.5 338.052 210.052 333.5 215.667 333.5L256.333 333.5C261.948 333.5 266.5 338.052 266.5 343.667L266.5 384.333C266.5 389.948 261.948 394.5 256.333 394.5L215.667 394.5C210.052 394.5 205.5 389.948 205.5 384.333Z" stroke="#2F528F" stroke-width="1.33333" stroke-miterlimit="8" fill="#DAE3F3" fill-rule="evenodd"/><path d="M811.5 255.667C811.5 250.052 816.052 245.5 821.667 245.5L862.333 245.5C867.948 245.5 872.5 250.052 872.5 255.667L872.5 296.333C872.5 301.948 867.948 306.5 862.333 306.5L821.667 306.5C816.052 306.5 811.5 301.948 811.5 296.333Z" stroke="#2F528F" stroke-width="1.33333" stroke-miterlimit="8" fill="#DAE3F3" fill-rule="evenodd"/><path d="M811.5 431.667C811.5 426.052 816.052 421.5 821.667 421.5L862.333 421.5C867.948 421.5 872.5 426.052 872.5 431.667L872.5 472.333C872.5 477.948 867.948 482.5 862.333 482.5L821.667 482.5C816.052 482.5 811.5 477.948 811.5 472.333Z" stroke="#2F528F" stroke-width="1.33333" stroke-miterlimit="8" fill="#DAE3F3" fill-rule="evenodd"/><path d="M1001.5 255.667C1001.5 250.052 1006.05 245.5 1011.67 245.5L1052.33 245.5C1057.95 245.5 1062.5 250.052 1062.5 255.667L1062.5 296.333C1062.5 301.948 1057.95 306.5 1052.33 306.5L1011.67 306.5C1006.05 306.5 1001.5 301.948 1001.5 296.333Z" stroke="#2F528F" stroke-width="1.33333" stroke-miterlimit="8" fill="#DAE3F3" fill-rule="evenodd"/><path d="M1001.5 431.667C1001.5 426.052 1006.05 421.5 1011.67 421.5L1052.33 421.5C1057.95 421.5 1062.5 426.052 1062.5 431.667L1062.5 472.333C1062.5 477.948 1057.95 482.5 1052.33 482.5L1011.67 482.5C1006.05 482.5 1001.5 477.948 1001.5 472.333Z" stroke="#2F528F" stroke-width="1.33333" stroke-miterlimit="8" fill="#DAE3F3" fill-rule="evenodd"/><path d="M811.5 343.667C811.5 338.052 816.052 333.5 821.667 333.5L862.333 333.5C867.948 333.5 872.5 338.052 872.5 343.667L872.5 384.333C872.5 389.948 867.948 394.5 862.333 394.5L821.667 394.5C816.052 394.5 811.5 389.948 811.5 384.333Z" stroke="#2F528F" stroke-width="1.33333" stroke-miterlimit="8" fill="#DAE3F3" fill-rule="evenodd"/><path d="M1001.5 343.667C1001.5 338.052 1006.05 333.5 1011.67 333.5L1052.33 333.5C1057.95 333.5 1062.5 338.052 1062.5 343.667L1062.5 384.333C1062.5 389.948 1057.95 394.5 1052.33 394.5L1011.67 394.5C1006.05 394.5 1001.5 389.948 1001.5 384.333Z" stroke="#2F528F" stroke-width="1.33333" stroke-miterlimit="8" fill="#DAE3F3" fill-rule="evenodd"/><path d="M918.5 255.667C918.5 250.052 923.052 245.5 928.667 245.5L969.333 245.5C974.948 245.5 979.5 250.052 979.5 255.667L979.5 296.333C979.5 301.948 974.948 306.5 969.333 306.5L928.667 306.5C923.052 306.5 918.5 301.948 918.5 296.333Z" stroke="#FFC000" stroke-width="1.33333" stroke-miterlimit="8" fill="#FFF2CC" fill-rule="evenodd"/><path d="M918.5 431.667C918.5 426.052 923.052 421.5 928.667 421.5L969.333 421.5C974.948 421.5 979.5 426.052 979.5 431.667L979.5 472.333C979.5 477.948 974.948 482.5 969.333 482.5L928.667 482.5C923.052 482.5 918.5 477.948 918.5 472.333Z" stroke="#FFC000" stroke-width="1.33333" stroke-miterlimit="8" fill="#FFF2CC" fill-rule="evenodd"/><path d="M1108.5 255.667C1108.5 250.052 1113.05 245.5 1118.67 245.5L1159.33 245.5C1164.95 245.5 1169.5 250.052 1169.5 255.667L1169.5 296.333C1169.5 301.948 1164.95 306.5 1159.33 306.5L1118.67 306.5C1113.05 306.5 1108.5 301.948 1108.5 296.333Z" stroke="#FFC000" stroke-width="1.33333" stroke-miterlimit="8" fill="#FFF2CC" fill-rule="evenodd"/><path d="M1108.5 431.667C1108.5 426.052 1113.05 421.5 1118.67 421.5L1159.33 421.5C1164.95 421.5 1169.5 426.052 1169.5 431.667L1169.5 472.333C1169.5 477.948 1164.95 482.5 1159.33 482.5L1118.67 482.5C1113.05 482.5 1108.5 477.948 1108.5 472.333Z" stroke="#FFC000" stroke-width="1.33333" stroke-miterlimit="8" fill="#FFF2CC" fill-rule="evenodd"/><path d="M918.5 343.667C918.5 338.052 923.052 333.5 928.667 333.5L969.333 333.5C974.948 333.5 979.5 338.052 979.5 343.667L979.5 384.333C979.5 389.948 974.948 394.5 969.333 394.5L928.667 394.5C923.052 394.5 918.5 389.948 918.5 384.333Z" stroke="#FFC000" stroke-width="1.33333" stroke-miterlimit="8" fill="#FFF2CC" fill-rule="evenodd"/><path d="M1108.5 343.667C1108.5 338.052 1113.05 333.5 1118.67 333.5L1159.33 333.5C1164.95 333.5 1169.5 338.052 1169.5 343.667L1169.5 384.333C1169.5 389.948 1164.95 394.5 1159.33 394.5L1118.67 394.5C1113.05 394.5 1108.5 389.948 1108.5 384.333Z" stroke="#FFC000" stroke-width="1.33333" stroke-miterlimit="8" fill="#FFF2CC" fill-rule="evenodd"/><text font-family="Calibri,Calibri_MSFontService,sans-serif" font-weight="400" font-size="133" transform="translate(326.604 408)">+</text><path d="M539.232 233.257 539.232 493.791" stroke="#000000" stroke-width="1.33333" stroke-linejoin="round" stroke-miterlimit="10" fill="none" fill-rule="evenodd"/><path d="M452.165 320.324 626.299 320.324" stroke="#000000" stroke-width="1.33333" stroke-linejoin="round" stroke-miterlimit="10" fill="none" fill-rule="evenodd"/><path d="M452.165 406.724 626.299 406.724" stroke="#000000" stroke-width="1.33333" stroke-linejoin="round" stroke-miterlimit="10" fill="none" fill-rule="evenodd"/><path d="M452.832 233.257 452.832 493.791" stroke="#000000" stroke-width="1.33333" stroke-linejoin="round" stroke-miterlimit="10" fill="none" fill-rule="evenodd"/><path d="M625.632 233.257 625.632 493.791" stroke="#000000" stroke-width="1.33333" stroke-linejoin="round" stroke-miterlimit="10" fill="none" fill-rule="evenodd"/><path d="M452.165 233.924 626.299 233.924" stroke="#000000" stroke-width="1.33333" stroke-linejoin="round" stroke-miterlimit="10" fill="none" fill-rule="evenodd"/><path d="M452.165 493.124 626.299 493.124" stroke="#000000" stroke-width="1.33333" stroke-linejoin="round" stroke-miterlimit="10" fill="none" fill-rule="evenodd"/><path d="M465.5 255.667C465.5 250.052 470.052 245.5 475.667 245.5L516.333 245.5C521.948 245.5 526.5 250.052 526.5 255.667L526.5 296.333C526.5 301.948 521.948 306.5 516.333 306.5L475.667 306.5C470.052 306.5 465.5 301.948 465.5 296.333Z" stroke="#FFC000" stroke-width="1.33333" stroke-miterlimit="8" fill="#FFF2CC" fill-rule="evenodd"/><path d="M465.5 431.667C465.5 426.052 470.052 421.5 475.667 421.5L516.333 421.5C521.948 421.5 526.5 426.052 526.5 431.667L526.5 472.333C526.5 477.948 521.948 482.5 516.333 482.5L475.667 482.5C470.052 482.5 465.5 477.948 465.5 472.333Z" stroke="#FFC000" stroke-width="1.33333" stroke-miterlimit="8" fill="#FFF2CC" fill-rule="evenodd"/><path d="M553.5 255.5C553.5 249.977 557.977 245.5 563.5 245.5L603.5 245.5C609.023 245.5 613.5 249.977 613.5 255.5L613.5 296.5C613.5 302.023 609.023 306.5 603.5 306.5L563.5 306.5C557.977 306.5 553.5 302.023 553.5 296.5Z" stroke="#FFC000" stroke-width="1.33333" stroke-miterlimit="8" fill="#FFF2CC" fill-rule="evenodd"/><path d="M553.5 431.5C553.5 425.977 557.977 421.5 563.5 421.5L603.5 421.5C609.023 421.5 613.5 425.977 613.5 431.5L613.5 472.5C613.5 478.023 609.023 482.5 603.5 482.5L563.5 482.5C557.977 482.5 553.5 478.023 553.5 472.5Z" stroke="#FFC000" stroke-width="1.33333" stroke-miterlimit="8" fill="#FFF2CC" fill-rule="evenodd"/><path d="M465.5 343.667C465.5 338.052 470.052 333.5 475.667 333.5L516.333 333.5C521.948 333.5 526.5 338.052 526.5 343.667L526.5 384.333C526.5 389.948 521.948 394.5 516.333 394.5L475.667 394.5C470.052 394.5 465.5 389.948 465.5 384.333Z" stroke="#FFC000" stroke-width="1.33333" stroke-miterlimit="8" fill="#FFF2CC" fill-rule="evenodd"/><path d="M553.5 343.5C553.5 337.977 557.977 333.5 563.5 333.5L603.5 333.5C609.023 333.5 613.5 337.977 613.5 343.5L613.5 384.5C613.5 390.023 609.023 394.5 603.5 394.5L563.5 394.5C557.977 394.5 553.5 390.023 553.5 384.5Z" stroke="#FFC000" stroke-width="1.33333" stroke-miterlimit="8" fill="#FFF2CC" fill-rule="evenodd"/><text font-family="Calibri,Calibri_MSFontService,sans-serif" font-weight="400" font-size="133" transform="translate(673.079 408)">=</text></g></svg>