<svg width="1080" height="360" xmlns="http://www.w3.org/2000/svg" xmlns:xlink="http://www.w3.org/1999/xlink" overflow="hidden"><defs><clipPath id="clip0"><rect x="105" y="189" width="1080" height="360"/></clipPath></defs><g clip-path="url(#clip0)" transform="translate(-105 -189)"><path d="M192.758 233.257 192.758 493.791" stroke="#000000" stroke-width="1.33333" stroke-linejoin="round" stroke-miterlimit="10" fill="none" fill-rule="evenodd"/><path d="M105.691 320.324 279.824 320.324" stroke="#000000" stroke-width="1.33333" stroke-linejoin="round" stroke-miterlimit="10" fill="none" fill-rule="evenodd"/><path d="M105.691 406.724 279.824 406.724" stroke="#000000" stroke-width="1.33333" stroke-linejoin="round" stroke-miterlimit="10" fill="none" fill-rule="evenodd"/><path d="M106.358 233.257 106.358 493.791" stroke="#000000" stroke-width="1.33333" stroke-linejoin="round" stroke-miterlimit="10" fill="none" fill-rule="evenodd"/><path d="M279.158 233.257 279.158 493.791" stroke="#000000" stroke-width="1.33333" stroke-linejoin="round" stroke-miterlimit="10" fill="none" fill-rule="evenodd"/><path d="M105.691 233.924 279.824 233.924" stroke="#000000" stroke-width="1.33333" stroke-linejoin="round" stroke-miterlimit="10" fill="none" fill-rule="evenodd"/><path d="M105.691 493.124 279.824 493.124" stroke="#000000" stroke-width="1.33333" stroke-linejoin="round" stroke-miterlimit="10" fill="none" fill-rule="evenodd"/><path d="M991.306 233.257 991.306 493.791" stroke="#000000" stroke-width="1.33333" stroke-linejoin="round" stroke-miterlimit="10" fill="none" fill-rule="evenodd"/><path d="M798.639 320.324 1183.97 320.324" stroke="#000000" stroke-width="1.33333" stroke-linejoin="round" stroke-miterlimit="10" fill="none" fill-rule="evenodd"/><path d="M798.639 406.724 1183.97 406.724" stroke="#000000" stroke-width="1.33333" stroke-linejoin="round" stroke-miterlimit="10" fill="none" fill-rule="evenodd"/><path d="M799.306 233.257 799.306 493.791" stroke="#000000" stroke-width="1.33333" stroke-linejoin="round" stroke-miterlimit="10" fill="none" fill-rule="evenodd"/><path d="M1183.31 233.257 1183.31 493.791" stroke="#000000" stroke-width="1.33333" stroke-linejoin="round" stroke-miterlimit="10" fill="none" fill-rule="evenodd"/><path d="M798.639 233.924 1183.97 233.924" stroke="#000000" stroke-width="1.33333" stroke-linejoin="round" stroke-miterlimit="10" fill="none" fill-rule="evenodd"/><path d="M798.639 493.124 1183.97 493.124" stroke="#000000" stroke-width="1.33333" stroke-linejoin="round" stroke-miterlimit="10" fill="none" fill-rule="evenodd"/><path d="M118.5 255.5C118.5 249.977 122.977 245.5 128.5 245.5L168.5 245.5C174.023 245.5 178.5 249.977 178.5 255.5L178.5 296.5C178.5 302.023 174.023 306.5 168.5 306.5L128.5 306.5C122.977 306.5 118.5 302.023 118.5 296.5Z" stroke="#2F528F" stroke-width="1.33333" stroke-miterlimit="8" fill="#DAE3F3" fill-rule="evenodd"/><path d="M118.5 431.5C118.5 425.977 122.977 421.5 128.5 421.5L168.5 421.5C174.023 421.5 178.5 425.977 178.5 431.5L178.5 472.5C178.5 478.023 174.023 482.5 168.5 482.5L128.5 482.5C122.977 482.5 118.5 478.023 118.5 472.5Z" stroke="#2F528F" stroke-width="1.33333" stroke-miterlimit="8" fill="#DAE3F3" fill-rule="evenodd"/><path d="M205.5 255.667C205.5 250.052 210.052 245.5 215.667 245.5L256.333 245.5C261.948 245.5 266.5 250.052 266.5 255.667L266.5 296.333C266.5 301.948 261.948 306.5 256.333 306.5L215.667 306.5C210.052 306.5 205.5 301.948 205.5 296.333Z" stroke="#2F528F" stroke-width="1.33333" stroke-miterlimit="8" fill="#DAE3F3" fill-rule="evenodd"/><path d="M205.5 431.667C205.5 426.052 210.052 421.5 215.667 421.5L256.333 421.5C261.948 421.5 266.5 426.052 266.5 431.667L266.5 472.333C266.5 477.948 261.948 482.5 256.333 482.5L215.667 482.5C210.052 482.5 205.5 477.948 205.5 472.333Z" stroke="#2F528F" stroke-width="1.33333" stroke-miterlimit="8" fill="#DAE3F3" fill-rule="evenodd"/><path d="M118.5 343.5C118.5 337.977 122.977 333.5 128.5 333.5L168.5 333.5C174.023 333.5 178.5 337.977 178.5 343.5L178.5 384.5C178.5 390.023 174.023 394.5 168.5 394.5L128.5 394.5C122.977 394.5 118.5 390.023 118.5 384.5Z" stroke="#2F528F" stroke-width="1.33333" stroke-miterlimit="8" fill="#DAE3F3" fill-rule="evenodd"/><path d="M205.5 343.667C205.5 338.052 210.052 333.5 215.667 333.5L256.333 333.5C261.948 333.5 266.5 338.052 266.5 343.667L266.5 384.333C266.5 389.948 261.948 394.5 256.333 394.5L215.667 394.5C210.052 394.5 205.5 389.948 205.5 384.333Z" stroke="#2F528F" stroke-width="1.33333" stroke-miterlimit="8" fill="#DAE3F3" fill-rule="evenodd"/><path d="M811.5 255.667C811.5 250.052 816.052 245.5 821.667 245.5L862.333 245.5C867.948 245.5 872.5 250.052 872.5 255.667L872.5 296.333C872.5 301.948 867.948 306.5 862.333 306.5L821.667 306.5C816.052 306.5 811.5 301.948 811.5 296.333Z" stroke="#2F528F" stroke-width="1.33333" stroke-miterlimit="8" fill="#DAE3F3" fill-rule="evenodd"/><path d="M811.5 431.667C811.5 426.052 816.052 421.5 821.667 421.5L862.333 421.5C867.948 421.5 872.5 426.052 872.5 431.667L872.5 472.333C872.5 477.948 867.948 482.5 862.333 482.5L821.667 482.5C816.052 482.5 811.5 477.948 811.5 472.333Z" stroke="#2F528F" stroke-width="1.33333" stroke-miterlimit="8" fill="#DAE3F3" fill-rule="evenodd"/><path d="M1001.5 255.667C1001.5 250.052 1006.05 245.5 1011.67 245.5L1052.33 245.5C1057.95 245.5 1062.5 250.052 1062.5 255.667L1062.5 296.333C1062.5 301.948 1057.95 306.5 1052.33 306.5L1011.67 306.5C1006.05 306.5 1001.5 301.948 1001.5 296.333Z" stroke="#2F528F" stroke-width="1.33333" stroke-miterlimit="8" fill="#DAE3F3" fill-rule="evenodd"/><path d="M1001.5 431.667C1001.5 426.052 1006.05 421.5 1011.67 421.5L1052.33 421.5C1057.95 421.5 1062.5 426.052 1062.5 431.667L1062.5 472.333C1062.5 477.948 1057.95 482.5 1052.33 482.5L1011.67 482.5C1006.05 482.5 1001.5 477.948 1001.5 472.333Z" stroke="#2F528F" stroke-width="1.33333" stroke-miterlimit="8" fill="#DAE3F3" fill-rule="evenodd"/><path d="M811.5 343.667C811.5 338.052 816.052 333.5 821.667 333.5L862.333 333.5C867.948 333.5 872.5 338.052 872.5 343.667L872.5 384.333C872.5 389.948 867.948 394.5 862.333 394.5L821.667 394.5C816.052 394.5 811.5 389.948 811.5 384.333Z" stroke="#2F528F" stroke-width="1.33333" stroke-miterlimit="8" fill="#DAE3F3" fill-rule="evenodd"/><path d="M1001.5 343.667C1001.5 338.052 1006.05 333.5 1011.67 333.5L1052.33 333.5C1057.95 333.5 1062.5 338.052 1062.5 343.667L1062.5 384.333C1062.5 389.948 1057.95 394.5 1052.33 394.5L1011.67 394.5C1006.05 394.5 1001.5 389.948 1001.5 384.333Z" stroke="#2F528F" stroke-width="1.33333" stroke-miterlimit="8" fill="#DAE3F3" fill-rule="evenodd"/><path d="M918.5 255.667C918.5 250.052 923.052 245.5 928.667 245.5L969.333 245.5C974.948 245.5 979.5 250.052 979.5 255.667L979.5 296.333C979.5 301.948 974.948 306.5 969.333 306.5L928.667 306.5C923.052 306.5 918.5 301.948 918.5 296.333Z" stroke="#FFC000" stroke-width="1.33333" stroke-miterlimit="8" fill="#FFF2CC" fill-rule="evenodd"/><path d="M918.5 431.667C918.5 426.052 923.052 421.5 928.667 421.5L969.333 421.5C974.948 421.5 979.5 426.052 979.5 431.667L979.5 472.333C979.5 477.948 974.948 482.5 969.333 482.5L928.667 482.5C923.052 482.5 918.5 477.948 918.5 472.333Z" stroke="#FFC000" stroke-width="1.33333" stroke-miterlimit="8" fill="#FFF2CC" fill-rule="evenodd"/><path d="M1108.5 255.667C1108.5 250.052 1113.05 245.5 1118.67 245.5L1159.33 245.5C1164.95 245.5 1169.5 250.052 1169.5 255.667L1169.5 296.333C1169.5 301.948 1164.95 306.5 1159.33 306.5L1118.67 306.5C1113.05 306.5 1108.5 301.948 1108.5 296.333Z" stroke="#FFC000" stroke-width="1.33333" stroke-miterlimit="8" fill="#FFF2CC" fill-rule="evenodd"/><path d="M1108.5 431.667C1108.5 426.052 1113.05 421.5 1118.67 421.5L1159.33 421.5C1164.95 421.5 1169.5 426.052 1169.5 431.667L1169.5 472.333C1169.5 477.948 1164.95 482.5 1159.33 482.5L1118.67 482.5C1113.05 482.5 1108.5 477.948 1108.5 472.333Z" stroke="#FFC000" stroke-width="1.33333" stroke-miterlimit="8" fill="#FFF2CC" fill-rule="evenodd"/><path d="M918.5 343.667C918.5 338.052 923.052 333.5 928.667 333.5L969.333 333.5C974.948 333.5 979.5 338.052 979.5 343.667L979.5 384.333C979.5 389.948 974.948 394.5 969.333 394.5L928.667 394.5C923.052 394.5 918.5 389.948 918.5 384.333Z" stroke="#FFC000" stroke-width="1.33333" stroke-miterlimit="8" fill="#FFF2CC" fill-rule="evenodd"/><path d="M1108.5 343.667C1108.5 338.052 1113.05 333.5 1118.67 333.5L1159.33 333.5C1164.95 333.5 1169.5 338.052 1169.5 343.667L1169.5 384.333C1169.5 389.948 1164.95 394.5 1159.33 394.5L1118.67 394.5C1113.05 394.5 1108.5 389.948 1108.5 384.333Z" stroke="#FFC000" stroke-width="1.33333" stroke-miterlimit="8" fill="#FFF2CC" fill-rule="evenodd"/><text font-family="Calibri,Calibri_MSFontService,sans-serif" font-weight="400" font-size="133" transform="matrix(0.707107 0.707107 -0.707107 0.707107 339.574 363)">+</text><text font-family="Calibri,Calibri_MSFontService,sans-serif" font-weight="400" font-size="133" transform="translate(673.079 408)">=</text><path d="M509.5 340.5C509.5 334.977 513.977 330.5 519.5 330.5L559.5 330.5C565.023 330.5 569.5 334.977 569.5 340.5L569.5 380.5C569.5 386.023 565.023 390.5 559.5 390.5L519.5 390.5C513.977 390.5 509.5 386.023 509.5 380.5Z" stroke="#FFC000" stroke-width="1.33333" stroke-miterlimit="8" fill="#FFF2CC" fill-rule="evenodd"/><path d="M496.032 316.133 496.032 403.867" stroke="#000000" stroke-width="1.33333" stroke-linejoin="round" stroke-miterlimit="10" fill="none" fill-rule="evenodd"/><path d="M582.432 316.133 582.432 403.867" stroke="#000000" stroke-width="1.33333" stroke-linejoin="round" stroke-miterlimit="10" fill="none" fill-rule="evenodd"/><path d="M495.365 316.8 583.099 316.8" stroke="#000000" stroke-width="1.33333" stroke-linejoin="round" stroke-miterlimit="10" fill="none" fill-rule="evenodd"/><path d="M495.365 403.2 583.099 403.2" stroke="#000000" stroke-width="1.33333" stroke-linejoin="round" stroke-miterlimit="10" fill="none" fill-rule="evenodd"/><text font-family="Calibri,Calibri_MSFontService,sans-serif" font-weight="400" font-size="67" transform="matrix(0.707107 0.707107 -0.707107 0.707107 872.107 279)">+<tspan font-size="67" x="134.431" y="-134.431">+</tspan><tspan font-size="67" x="123.037" y="123.037">+</tspan><tspan font-size="67" x="257.468" y="-11.3946">+</tspan><tspan font-size="67" x="61.5183" y="61.5183">+</tspan><tspan font-size="67" x="195.949" y="-72.9129">+</tspan></text></g></svg>